# xmcd CD database file
#
# Track frame offsets:
#	150
#	23483
#	48893
#	76786
#	92635
#	107780
#	125554
#	141920
#	161509
#	181837
#	202722
#	224740
#	241505
#	259548
#	274822
#	296947
#
# Disc length: 4254 seconds
#
# Revision: 0
# Processed by: cddbd v1.5.1PL0 Copyright (c) Steve Scherf et al.
# Submitted via: CDex 1.51
#
DISCID=d8109c10
DTITLE=Fulanito - Lo Mejor En El 2004
DYEAR=2004
DGENRE=Merengue
TTITLE0=Cállate
TTITLE1=El Padrino
TTITLE2=La Novela
TTITLE3=Pecho A Pechuga
TTITLE4=Guallando
TTITLE5=El Seguro Paga
TTITLE6=Quien Es Fulanito
TTITLE7=El Cepillo
TTITLE8=Ya Es Ajena
TTITLE9=Cómetela Pura
TTITLE10=Merencumbiaso
TTITLE11=Brand New Milenium
TTITLE12=El Generalísimo
TTITLE13=Fulanito
TTITLE14=Quien Es Fulanito (DJ Darta Remix)
TTITLE15=Atrevidas
EXTD=YEAR: 2004
EXTT0=
EXTT1=
EXTT2=
EXTT3=
EXTT4=
EXTT5=
EXTT6=
EXTT7=
EXTT8=
EXTT9=
EXTT10=
EXTT11=
EXTT12=
EXTT13=
EXTT14=
EXTT15=
PLAYORDER=
